<?xml version="1.0" encoding="UTF-8" standalone="no"?>
<svg
   xmlns:dc="http://purl.org/dc/elements/1.1/"
   xmlns:cc="http://creativecommons.org/ns#"
   xmlns:rdf="http://www.w3.org/1999/02/22-rdf-syntax-ns#"
   xmlns:svg="http://www.w3.org/2000/svg"
   xmlns="http://www.w3.org/2000/svg"
   xmlns:sodipodi="http://sodipodi.sourceforge.net/DTD/sodipodi-0.dtd"
   xmlns:inkscape="http://www.inkscape.org/namespaces/inkscape"
   version="1.1"
   id="Layer_1"
   x="0px"
   y="0px"
   viewBox="0 0 69.530003 87.25195"
   xml:space="preserve"
   sodipodi:docname="mute.svg"
   width="69.529999"
   height="87.251953"
   inkscape:version="0.92.2 (5c3e80d, 2017-08-06)"><metadata
     id="metadata4563"><rdf:RDF><cc:Work
         rdf:about=""><dc:format>image/svg+xml</dc:format><dc:type
           rdf:resource="http://purl.org/dc/dcmitype/StillImage" /><dc:title></dc:title></cc:Work></rdf:RDF></metadata><defs
     id="defs4561" /><sodipodi:namedview
     pagecolor="#ffffff"
     bordercolor="#666666"
     borderopacity="1"
     objecttolerance="10"
     gridtolerance="10"
     guidetolerance="10"
     inkscape:pageopacity="0"
     inkscape:pageshadow="2"
     inkscape:window-width="1366"
     inkscape:window-height="706"
     id="namedview4559"
     showgrid="false"
     inkscape:zoom="2.311198"
     inkscape:cx="93.382709"
     inkscape:cy="61.33671"
     inkscape:window-x="-8"
     inkscape:window-y="-8"
     inkscape:window-maximized="1"
     inkscape:current-layer="g4556"><inkscape:grid
       type="xygrid"
       id="grid5838"
       originx="0"
       originy="-7.7028513" /></sodipodi:namedview><style
     type="text/css"
     id="style4552">.st0{fill-rule:evenodd;clip-rule:evenodd;}</style><g
     id="g4556"
     transform="translate(0,-0.00519286)"><path
       class="st0"
       d="m 5.06,20.78 h 20.67 c 0.43,0 0.79,0.35 0.79,0.79 v 44.72 c 0,0.43 -0.35,0.79 -0.79,0.79 H 5.0500001 C 2.2700001,67.07 0,64.8 0,62.02 V 25.85 C 0,23.06 2.28,20.78 5.06,20.78 Z M 31,19.96 C 43.04,13.35 55.09,6.74 67.13,0.14 c 1.16,-0.63 2.4,1.08 2.4,2.4 v 82.04 c 0,1.39 -1.32,3.21 -2.53,2.53 L 31,66.8 C 30.77,66.67 30.52,66.59 30.52,66.32 V 20.44 c 0,-0.27 0.25,-0.35 0.48,-0.48 z"
       id="path4554"
       inkscape:connector-curvature="0"
       style="clip-rule:evenodd;fill:#fff;fill-rule:evenodd"
       inkscape:transform-center-x="-61.440003"
       inkscape:transform-center-y="3.8940847"
       sodipodi:nodetypes="ssssscsssccssccssc" /></g></svg>